STARTFONT 2.1
FONT -FontForge-Syncopate-Book-R-Normal--16-160-72-72-P-120-ISO10646-1
SIZE 16 72 72
FONTBOUNDINGBOX 29 19 -3 -4
COMMENT "Generated by fontforge, http://fontforge.sourceforge.net"
COMMENT "Copyright (c) 2010 by Brian J. Bonislawsky DBA Astigmatic (AOETI). All rights reserved. Available under the Apache 2.0 licence.http://www.apache.org/licenses/LICENSE-2.0.html"
STARTPROPERTIES 39
FOUNDRY "FontForge"
FAMILY_NAME "Syncopate"
WEIGHT_NAME "Book"
SLANT "R"
SETWIDTH_NAME "Normal"
ADD_STYLE_NAME ""
PIXEL_SIZE 16
POINT_SIZE 160
RESOLUTION_X 72
RESOLUTION_Y 72
SPACING "P"
AVERAGE_WIDTH 120
CHARSET_REGISTRY "ISO10646"
CHARSET_ENCODING "1"
FONTNAME_REGISTRY ""
CHARSET_COLLECTIONS "ISO8859-2 ISO8859-9 ISO8859-4 ISO10646-1"
FONT_NAME "Syncopate-Regular"
FACE_NAME "Syncopate Regular"
COPYRIGHT "Copyright (c) 2010 by Brian J. Bonislawsky DBA Astigmatic (AOETI). All rights reserved. Available under the Apache 2.0 licence.http://www.apache.org/licenses/LICENSE-2.0.html"
FONT_VERSION "001.001"
FONT_ASCENT 13
FONT_DESCENT 3
UNDERLINE_POSITION -2
UNDERLINE_THICKNESS 1
X_HEIGHT 10
CAP_HEIGHT 10
RAW_ASCENT 799
RAW_DESCENT 200
NORM_SPACE 6
RELATIVE_WEIGHT 40
RELATIVE_SETWIDTH 70
SUPERSCRIPT_X 0
SUPERSCRIPT_Y 4
SUPERSCRIPT_SIZE 3
SUBSCRIPT_X 0
SUBSCRIPT_Y 4
SUBSCRIPT_SIZE 3
AVG_LOWERCASE_WIDTH 138
AVG_UPPERCASE_WIDTH 131
ENDPROPERTIES
CHARS 370
STARTCHAR space
ENCODING 32
SWIDTH 375 0
DWIDTH 6 0
BBX 1 1 0 0
BITMAP
00
ENDCHAR
STARTCHAR exclam
ENCODING 33
SWIDTH 274 0
DWIDTH 4 0
BBX 1 11 2 0
BITMAP
80
80
80
80
80
80
80
80
00
80
80
ENDCHAR
STARTCHAR quotedbl
ENCODING 34
SWIDTH 290 0
DWIDTH 5 0
BBX 3 3 1 8
BITMAP
A0
A0
A0
ENDCHAR
STARTCHAR numbersign
ENCODING 35
SWIDTH 701 0
DWIDTH 11 0
BBX 10 11 1 0
BITMAP
1100
1100
1100
7FC0
2200
2200
2200
FF80
2200
4400
4400
ENDCHAR
STARTCHAR dollar
ENCODING 36
SWIDTH 767 0
DWIDTH 12 0
BBX 10 13 1 -1
BITMAP
0800
3F00
4880
8800
8800
6800
1E00
0980
0840
0840
8880
7F00
0800
ENDCHAR
STARTCHAR percent
ENCODING 37
SWIDTH 992 0
DWIDTH 16 0
BBX 13 11 1 0
BITMAP
7820
8440
8480
8500
7900
0200
04F0
0508
0908
1108
20F0
ENDCHAR
STARTCHAR ampersand
ENCODING 38
SWIDTH 926 0
DWIDTH 15 0
BBX 13 11 1 0
BITMAP
1E00
2100
2100
2200
1400
3800
4410
8310
80A0
4060
3F98
ENDCHAR
STARTCHAR quotesingle
ENCODING 39
SWIDTH 140 0
DWIDTH 2 0
BBX 1 3 1 8
BITMAP
80
80
80
ENDCHAR
STARTCHAR parenleft
ENCODING 40
SWIDTH 420 0
DWIDTH 7 0
BBX 4 13 1 -1
BITMAP
10
20
40
40
80
80
80
80
80
40
40
20
10
ENDCHAR
STARTCHAR parenright
ENCODING 41
SWIDTH 420 0
DWIDTH 7 0
BBX 4 13 1 -1
BITMAP
80
40
20
20
10
10
10
10
10
20
20
40
80
ENDCHAR
STARTCHAR asterisk
ENCODING 42
SWIDTH 503 0
DWIDTH 8 0
BBX 7 7 1 4
BITMAP
10
92
7C
10
7C
92
10
ENDCHAR
STARTCHAR plus
ENCODING 43
SWIDTH 634 0
DWIDTH 10 0
BBX 7 7 2 2
BITMAP
10
10
10
FE
10
10
10
ENDCHAR
STARTCHAR comma
ENCODING 44
SWIDTH 185 0
DWIDTH 3 0
BBX 2 3 0 -1
BITMAP
40
80
80
ENDCHAR
STARTCHAR hyphen
ENCODING 45
SWIDTH 540 0
DWIDTH 9 0
BBX 6 1 1 5
BITMAP
FC
ENDCHAR
STARTCHAR period
ENCODING 46
SWIDTH 185 0
DWIDTH 3 0
BBX 1 2 1 0
BITMAP
80
80
ENDCHAR
STARTCHAR slash
ENCODING 47
SWIDTH 500 0
DWIDTH 8 0
BBX 6 11 1 0
BITMAP
04
08
08
10
10
10
20
20
40
40
80
ENDCHAR
STARTCHAR zero
ENCODING 48
SWIDTH 833 0
DWIDTH 13 0
BBX 11 11 1 0
BITMAP
1F00
2080
4040
8020
8020
8020
8020
8020
4040
2080
1F00
ENDCHAR
STARTCHAR one
ENCODING 49
SWIDTH 339 0
DWIDTH 5 0
BBX 4 11 0 0
BITMAP
30
D0
10
10
10
10
10
10
10
10
10
ENDCHAR
STARTCHAR two
ENCODING 50
SWIDTH 728 0
DWIDTH 12 0
BBX 10 11 1 0
BITMAP
7F00
8080
0040
0040
0040
0080
0100
0600
1800
6000
FFC0
ENDCHAR
STARTCHAR three
ENCODING 51
SWIDTH 726 0
DWIDTH 12 0
BBX 9 11 1 0
BITMAP
7E00
8100
0080
0080
0100
1E00
0300
0080
0080
8100
7E00
ENDCHAR
STARTCHAR four
ENCODING 52
SWIDTH 769 0
DWIDTH 12 0
BBX 12 11 0 0
BITMAP
0180
0280
0480
0880
1080
2080
4080
FFF0
0080
0080
0080
ENDCHAR
STARTCHAR five
ENCODING 53
SWIDTH 738 0
DWIDTH 12 0
BBX 9 11 2 0
BITMAP
FF00
8000
8000
8000
FE00
0100
0080
0080
0080
8100
7E00
ENDCHAR
STARTCHAR six
ENCODING 54
SWIDTH 772 0
DWIDTH 12 0
BBX 10 11 1 0
BITMAP
1F00
2080
4000
8000
9F00
E080
8040
8040
4040
2080
1F00
ENDCHAR
STARTCHAR seven
ENCODING 55
SWIDTH 669 0
DWIDTH 11 0
BBX 10 11 0 0
BITMAP
FFC0
0080
0080
0100
0100
0200
0400
0400
0800
1000
1000
ENDCHAR
STARTCHAR eight
ENCODING 56
SWIDTH 793 0
DWIDTH 13 0
BBX 11 11 1 0
BITMAP
1F00
2080
4040
4040
3180
0E00
71C0
8020
8020
4040
3F80
ENDCHAR
STARTCHAR nine
ENCODING 57
SWIDTH 776 0
DWIDTH 12 0
BBX 10 11 1 0
BITMAP
3E00
4100
8080
8040
8040
41C0
3E40
0040
0080
4100
3E00
ENDCHAR
STARTCHAR colon
ENCODING 58
SWIDTH 245 0
DWIDTH 4 0
BBX 1 7 1 0
BITMAP
80
80
00
00
00
80
80
ENDCHAR
STARTCHAR semicolon
ENCODING 59
SWIDTH 234 0
DWIDTH 4 0
BBX 2 8 1 -1
BITMAP
40
40
00
00
00
40
80
80
ENDCHAR
STARTCHAR less
ENCODING 60
SWIDTH 634 0
DWIDTH 10 0
BBX 8 7 1 2
BITMAP
01
0E
70
80
70
0E
01
ENDCHAR
STARTCHAR equal
ENCODING 61
SWIDTH 634 0
DWIDTH 10 0
BBX 7 4 1 3
BITMAP
FE
00
00
FE
ENDCHAR
STARTCHAR greater
ENCODING 62
SWIDTH 634 0
DWIDTH 10 0
BBX 8 7 1 2
BITMAP
80
70
0E
01
0E
70
80
ENDCHAR
STARTCHAR question
ENCODING 63
SWIDTH 568 0
DWIDTH 9 0
BBX 7 11 1 0
BITMAP
78
84
02
02
0C
30
20
00
00
20
20
ENDCHAR
STARTCHAR at
ENCODING 64
SWIDTH 1016 0
DWIDTH 16 0
BBX 14 11 1 0
BITMAP
07E0
1810
2008
43E4
8444
8844
8848
87F0
4000
3020
0FC0
ENDCHAR
STARTCHAR A
ENCODING 65
SWIDTH 812 0
DWIDTH 13 0
BBX 11 11 1 0
BITMAP
0400
0A00
0A00
1100
1100
2080
2080
7FC0
4040
8020
8020
ENDCHAR
STARTCHAR B
ENCODING 66
SWIDTH 836 0
DWIDTH 13 0
BBX 10 11 2 0
BITMAP
FF00
8080
8080
8080
8080
FF00
8080
8040
8040
8040
FF80
ENDCHAR
STARTCHAR C
ENCODING 67
SWIDTH 869 0
DWIDTH 14 0
BBX 12 11 1 0
BITMAP
0FE0
3010
4000
8000
8000
8000
8000
8000
4000
3010
0FE0
ENDCHAR
STARTCHAR D
ENCODING 68
SWIDTH 910 0
DWIDTH 15 0
BBX 12 11 2 0
BITMAP
FF80
8040
8020
8010
8010
8010
8010
8010
8020
8040
FF80
ENDCHAR
STARTCHAR E
ENCODING 69
SWIDTH 754 0
DWIDTH 12 0
BBX 9 11 2 0
BITMAP
FF80
8000
8000
8000
8000
FF00
8000
8000
8000
8000
FF80
ENDCHAR
STARTCHAR F
ENCODING 70
SWIDTH 687 0
DWIDTH 11 0
BBX 9 11 2 0
BITMAP
FF80
8000
8000
8000
8000
FF80
8000
8000
8000
8000
8000
ENDCHAR
STARTCHAR G
ENCODING 71
SWIDTH 910 0
DWIDTH 15 0
BBX 12 11 1 0
BITMAP
0FE0
3010
4000
8000
8000
8000
81F0
8010
4010
3010
0FE0
ENDCHAR
STARTCHAR H
ENCODING 72
SWIDTH 949 0
DWIDTH 15 0
BBX 12 11 2 0
BITMAP
8010
8010
8010
8010
8010
FFF0
8010
8010
8010
8010
8010
ENDCHAR
STARTCHAR I
ENCODING 73
SWIDTH 287 0
DWIDTH 5 0
BBX 1 11 2 0
BITMAP
80
80
80
80
80
80
80
80
80
80
80
ENDCHAR
STARTCHAR J
ENCODING 74
SWIDTH 590 0
DWIDTH 9 0
BBX 8 11 0 0
BITMAP
01
01
01
01
01
01
01
01
01
82
7C
ENDCHAR
STARTCHAR K
ENCODING 75
SWIDTH 806 0
DWIDTH 13 0
BBX 11 11 2 0
BITMAP
80E0
8100
8600
8800
B000
E000
9000
8C00
8200
8180
8060
ENDCHAR
STARTCHAR L
ENCODING 76
SWIDTH 701 0
DWIDTH 11 0
BBX 9 11 2 0
BITMAP
8000
8000
8000
8000
8000
8000
8000
8000
8000
8000
FF80
ENDCHAR
STARTCHAR M
ENCODING 77
SWIDTH 1139 0
DWIDTH 18 0
BBX 15 11 2 0
BITMAP
8002
C006
A00A
A00A
9012
8822
8822
8442
8282
8282
8102
ENDCHAR
STARTCHAR N
ENCODING 78
SWIDTH 936 0
DWIDTH 15 0
BBX 11 11 2 0
BITMAP
8020
C020
A020
9020
8820
8420
8220
8120
80A0
8060
8020
ENDCHAR
STARTCHAR O
ENCODING 79
SWIDTH 983 0
DWIDTH 16 0
BBX 14 11 1 0
BITMAP
0FC0
3030
4008
8004
8004
8004
8004
8004
4008
3030
0FC0
ENDCHAR
STARTCHAR P
ENCODING 80
SWIDTH 818 0
DWIDTH 13 0
BBX 10 11 2 0
BITMAP
FF00
8080
8040
8040
8040
8080
FF00
8000
8000
8000
8000
ENDCHAR
STARTCHAR Q
ENCODING 81
SWIDTH 983 0
DWIDTH 16 0
BBX 15 11 1 0
BITMAP
0FC0
3030
4008
8004
8004
8004
8004
8004
40C8
3030
0FCE
ENDCHAR
STARTCHAR R
ENCODING 82
SWIDTH 833 0
DWIDTH 13 0
BBX 11 11 2 0
BITMAP
FF00
8080
8040
8040
8080
FF00
8100
8080
8080
8040
8020
ENDCHAR
STARTCHAR S
ENCODING 83
SWIDTH 787 0
DWIDTH 13 0
BBX 10 11 1 0
BITMAP
3F00
4080
8000
8000
6000
1E00
0180
0040
0040
8080
7F00
ENDCHAR
STARTCHAR T
ENCODING 84
SWIDTH 708 0
DWIDTH 11 0
BBX 11 11 0 0
BITMAP
FFE0
0400
0400
0400
0400
0400
0400
0400
0400
0400
0400
ENDCHAR
STARTCHAR U
ENCODING 85
SWIDTH 891 0
DWIDTH 14 0
BBX 11 11 2 0
BITMAP
8020
8020
8020
8020
8020
8020
8020
8020
8020
4040
3F80
ENDCHAR
STARTCHAR V
ENCODING 86
SWIDTH 817 0
DWIDTH 13 0
BBX 11 11 1 0
BITMAP
8020
8020
4040
4040
2080
2080
1100
1100
0A00
0A00
0400
ENDCHAR
STARTCHAR W
ENCODING 87
SWIDTH 1266 0
DWIDTH 20 0
BBX 17 11 2 0
BITMAP
808080
814080
414100
414100
422100
222200
222200
241200
141400
141400
080800
ENDCHAR
STARTCHAR X
ENCODING 88
SWIDTH 821 0
DWIDTH 13 0
BBX 11 11 1 0
BITMAP
8020
4040
2080
1100
0A00
0400
0A00
1100
2080
4040
8020
ENDCHAR
STARTCHAR Y
ENCODING 89
SWIDTH 763 0
DWIDTH 12 0
BBX 9 11 2 0
BITMAP
8080
4100
4100
2200
1400
1400
0800
0800
0800
0800
0800
ENDCHAR
STARTCHAR Z
ENCODING 90
SWIDTH 728 0
DWIDTH 12 0
BBX 9 11 1 0
BITMAP
FF80
0100
0200
0200
0400
0800
1000
2000
4000
4000
FF80
ENDCHAR
STARTCHAR bracketleft
ENCODING 91
SWIDTH 409 0
DWIDTH 7 0
BBX 4 13 2 -1
BITMAP
F0
80
80
80
80
80
80
80
80
80
80
80
F0
ENDCHAR
STARTCHAR backslash
ENCODING 92
SWIDTH 500 0
DWIDTH 8 0
BBX 6 11 1 0
BITMAP
80
40
40
20
20
20
10
10
08
08
04
ENDCHAR
STARTCHAR bracketright
ENCODING 93
SWIDTH 409 0
DWIDTH 7 0
BBX 4 13 1 -1
BITMAP
F0
10
10
10
10
10
10
10
10
10
10
10
F0
ENDCHAR
STARTCHAR asciicircum
ENCODING 94
SWIDTH 459 0
DWIDTH 7 0
BBX 5 5 1 6
BITMAP
20
50
50
88
88
ENDCHAR
STARTCHAR underscore
ENCODING 95
SWIDTH 500 0
DWIDTH 8 0
BBX 8 1 0 -2
BITMAP
FF
ENDCHAR
STARTCHAR grave
ENCODING 96
SWIDTH 527 0
DWIDTH 8 0
BBX 4 2 1 9
BITMAP
C0
30
ENDCHAR
STARTCHAR a
ENCODING 97
SWIDTH 888 0
DWIDTH 14 0
BBX 12 11 1 0
BITMAP
1FC0
6020
0010
0010
03F0
3C10
4010
8010
8010
4070
3F90
ENDCHAR
STARTCHAR b
ENCODING 98
SWIDTH 836 0
DWIDTH 13 0
BBX 10 11 2 0
BITMAP
FF00
8080
8080
8080
8080
FF00
8080
8040
8040
8040
FF80
ENDCHAR
STARTCHAR c
ENCODING 99
SWIDTH 869 0
DWIDTH 14 0
BBX 12 11 1 0
BITMAP
0FE0
3010
4000
8000
8000
8000
8000
8000
4000
3010
0FE0
ENDCHAR
STARTCHAR d
ENCODING 100
SWIDTH 910 0
DWIDTH 15 0
BBX 12 11 2 0
BITMAP
FF80
8040
8020
8010
8010
8010
8010
8010
8020
8040
FF80
ENDCHAR
STARTCHAR e
ENCODING 101
SWIDTH 910 0
DWIDTH 15 0
BBX 12 11 1 0
BITMAP
1F80
2040
4020
8010
8010
FFF0
8000
8000
4000
3020
1FC0
ENDCHAR
STARTCHAR f
ENCODING 102
SWIDTH 817 0
DWIDTH 13 0
BBX 10 11 2 0
BITMAP
3FC0
4000
8000
8000
8000
FFC0
8000
8000
8000
8000
8000
ENDCHAR
STARTCHAR g
ENCODING 103
SWIDTH 910 0
DWIDTH 15 0
BBX 12 11 1 0
BITMAP
0FE0
3010
4000
8000
8000
8000
81F0
8010
4010
3010
0FE0
ENDCHAR
STARTCHAR h
ENCODING 104
SWIDTH 949 0
DWIDTH 15 0
BBX 12 11 2 0
BITMAP
8010
8010
8010
8010
8010
FFF0
8010
8010
8010
8010
8010
ENDCHAR
STARTCHAR i
ENCODING 105
SWIDTH 287 0
DWIDTH 5 0
BBX 1 11 2 0
BITMAP
80
80
80
80
80
80
80
80
80
80
80
ENDCHAR
STARTCHAR j
ENCODING 106
SWIDTH 590 0
DWIDTH 9 0
BBX 8 11 0 0
BITMAP
01
01
01
01
01
01
01
01
01
82
7C
ENDCHAR
STARTCHAR k
ENCODING 107
SWIDTH 867 0
DWIDTH 14 0
BBX 11 11 2 0
BITMAP
8040
8040
8080
8100
8200
FC00
8300
8080
8040
8020
8020
ENDCHAR
STARTCHAR l
ENCODING 108
SWIDTH 709 0
DWIDTH 11 0
BBX 9 11 2 0
BITMAP
8000
8000
8000
8000
8000
8000
8000
8000
8000
4000
3F80
ENDCHAR
STARTCHAR m
ENCODING 109
SWIDTH 1246 0
DWIDTH 20 0
BBX 17 11 2 0
BITMAP
9E1E00
A16100
C08080
808080
808080
808080
808080
808080
808080
808080
808080
ENDCHAR
STARTCHAR n
ENCODING 110
SWIDTH 933 0
DWIDTH 15 0
BBX 11 11 2 0
BITMAP
8F80
B040
C020
8020
8020
8020
8020
8020
8020
8020
8020
ENDCHAR
STARTCHAR o
ENCODING 111
SWIDTH 983 0
DWIDTH 16 0
BBX 14 11 1 0
BITMAP
0FC0
3030
4008
8004
8004
8004
8004
8004
4008
3030
0FC0
ENDCHAR
STARTCHAR p
ENCODING 112
SWIDTH 818 0
DWIDTH 13 0
BBX 10 11 2 0
BITMAP
FF00
8080
8040
8040
8040
8080
FF00
8000
8000
8000
8000
ENDCHAR
STARTCHAR q
ENCODING 113
SWIDTH 983 0
DWIDTH 16 0
BBX 15 11 1 0
BITMAP
0FC0
3030
4008
8004
8004
8004
8004
8004
4008
3030
0FCE
ENDCHAR
STARTCHAR r
ENCODING 114
SWIDTH 609 0
DWIDTH 10 0
BBX 8 11 2 0
BITMAP
8F
B0
C0
80
80
80
80
80
80
80
80
ENDCHAR
STARTCHAR s
ENCODING 115
SWIDTH 787 0
DWIDTH 13 0
BBX 10 11 1 0
BITMAP
3F00
4080
8000
8000
6000
1E00
0180
0040
0040
8080
7F00
ENDCHAR
STARTCHAR t
ENCODING 116
SWIDTH 708 0
DWIDTH 11 0
BBX 11 11 0 0
BITMAP
FFE0
0400
0400
0400
0400
0400
0400
0400
0400
0400
0400
ENDCHAR
STARTCHAR u
ENCODING 117
SWIDTH 931 0
DWIDTH 15 0
BBX 11 11 2 0
BITMAP
8020
8020
8020
8020
8020
8020
8020
8020
8060
41A0
3E20
ENDCHAR
STARTCHAR v
ENCODING 118
SWIDTH 817 0
DWIDTH 13 0
BBX 11 11 1 0
BITMAP
8020
8020
4040
4040
2080
2080
1100
1100
0A00
0A00
0400
ENDCHAR
STARTCHAR w
ENCODING 119
SWIDTH 1266 0
DWIDTH 20 0
BBX 17 11 2 0
BITMAP
808080
814080
414100
414100
422100
222200
222200
241200
141400
141400
080800
ENDCHAR
STARTCHAR x
ENCODING 120
SWIDTH 821 0
DWIDTH 13 0
BBX 11 11 1 0
BITMAP
8020
4040
2080
1100
0A00
0400
0A00
1100
2080
4040
8020
ENDCHAR
STARTCHAR y
ENCODING 121
SWIDTH 911 0
DWIDTH 15 0
BBX 11 11 2 0
BITMAP
8020
8020
8020
8020
8060
41A0
3E20
0020
0020
80C0
7F00
ENDCHAR
STARTCHAR z
ENCODING 122
SWIDTH 728 0
DWIDTH 12 0
BBX 9 11 1 0
BITMAP
FF80
0100
0200
0200
0400
0800
1000
2000
4000
4000
FF80
ENDCHAR
STARTCHAR braceleft
ENCODING 123
SWIDTH 386 0
DWIDTH 6 0
BBX 5 13 0 -1
BITMAP
18
20
20
20
20
20
C0
60
20
20
20
20
18
ENDCHAR
STARTCHAR bar
ENCODING 124
SWIDTH 259 0
DWIDTH 4 0
BBX 1 16 2 -4
BITMAP
80
80
80
80
80
80
80
80
80
80
80
80
80
80
80
80
ENDCHAR
STARTCHAR braceright
ENCODING 125
SWIDTH 386 0
DWIDTH 6 0
BBX 5 13 1 -1
BITMAP
C0
20
20
20
20
20
18
30
20
20
20
20
C0
ENDCHAR
STARTCHAR asciitilde
ENCODING 126
SWIDTH 634 0
DWIDTH 10 0
BBX 8 2 1 5
BITMAP
71
8E
ENDCHAR
STARTCHAR nonbreakingspace
ENCODING 160
SWIDTH 375 0
DWIDTH 6 0
BBX 1 1 0 0
BITMAP
00
ENDCHAR
STARTCHAR exclamdown
ENCODING 161
SWIDTH 274 0
DWIDTH 4 0
BBX 1 11 2 0
BITMAP
80
80
00
80
80
80
80
80
80
80
80
ENDCHAR
STARTCHAR cent
ENCODING 162
SWIDTH 736 0
DWIDTH 12 0
BBX 10 13 1 -1
BITMAP
0400
1F80
2440
4400
8400
8400
8400
8400
4400
2440
1F80
0400
0400
ENDCHAR
STARTCHAR sterling
ENCODING 163
SWIDTH 792 0
DWIDTH 13 0
BBX 10 11 1 0
BITMAP
0F00
1080
2000
2000
2000
FF00
2000
2000
2000
2000
FFC0
ENDCHAR
STARTCHAR currency
ENCODING 164
SWIDTH 560 0
DWIDTH 9 0
BBX 8 8 1 1
BITMAP
81
5A
24
42
42
24
5A
81
ENDCHAR
STARTCHAR yen
ENCODING 165
SWIDTH 811 0
DWIDTH 13 0
BBX 11 11 1 0
BITMAP
8060
4040
2080
1100
0A00
FBE0
0400
FFE0
0400
0400
0400
ENDCHAR
STARTCHAR brokenbar
ENCODING 166
SWIDTH 259 0
DWIDTH 4 0
BBX 1 14 2 -3
BITMAP
80
80
80
80
80
80
00
00
80
80
80
80
80
80
ENDCHAR
STARTCHAR section
ENCODING 167
SWIDTH 500 0
DWIDTH 8 0
BBX 6 11 1 0
BITMAP
70
88
88
60
98
84
64
18
04
84
78
ENDCHAR
STARTCHAR dieresis
ENCODING 168
SWIDTH 527 0
DWIDTH 8 0
BBX 4 1 2 9
BITMAP
90
ENDCHAR
STARTCHAR copyright
ENCODING 169
SWIDTH 770 0
DWIDTH 12 0
BBX 11 11 1 0
BITMAP
1F00
2080
4C40
9220
A020
A020
A020
9220
4C40
2080
1F00
ENDCHAR
STARTCHAR ordfeminine
ENCODING 170
SWIDTH 497 0
DWIDTH 8 0
BBX 6 8 1 3
BITMAP
78
04
3C
C4
84
7C
00
FC
ENDCHAR
STARTCHAR guillemotleft
ENCODING 171
SWIDTH 440 0
DWIDTH 7 0
BBX 6 5 1 3
BITMAP
24
48
90
48
24
ENDCHAR
STARTCHAR logicalnot
ENCODING 172
SWIDTH 634 0
DWIDTH 10 0
BBX 7 4 2 3
BITMAP
FE
02
02
02
ENDCHAR
STARTCHAR uni00AD
ENCODING 173
SWIDTH 540 0
DWIDTH 9 0
BBX 6 1 1 5
BITMAP
FC
ENDCHAR
STARTCHAR registered
ENCODING 174
SWIDTH 600 0
DWIDTH 10 0
BBX 8 8 1 3
BITMAP
3C
42
B9
A9
B9
A9
42
3C
ENDCHAR
STARTCHAR macron
ENCODING 175
SWIDTH 527 0
DWIDTH 8 0
BBX 4 1 2 9
BITMAP
F0
ENDCHAR
STARTCHAR degree
ENCODING 176
SWIDTH 373 0
DWIDTH 6 0
BBX 4 4 1 7
BITMAP
60
90
90
60
ENDCHAR
STARTCHAR plusminus
ENCODING 177
SWIDTH 634 0
DWIDTH 10 0
BBX 7 9 2 1
BITMAP
10
10
10
FE
10
10
10
00
FE
ENDCHAR
STARTCHAR twosuperior
ENCODING 178
SWIDTH 511 0
DWIDTH 8 0
BBX 6 7 1 4
BITMAP
78
84
04
08
10
60
FC
ENDCHAR
STARTCHAR threesuperior
ENCODING 179
SWIDTH 512 0
DWIDTH 8 0
BBX 7 7 0 4
BITMAP
FC
02
02
3C
06
02
FC
ENDCHAR
STARTCHAR acute
ENCODING 180
SWIDTH 527 0
DWIDTH 8 0
BBX 4 2 3 9
BITMAP
30
C0
ENDCHAR
STARTCHAR micro
ENCODING 181
SWIDTH 705 0
DWIDTH 11 0
BBX 9 10 1 -3
BITMAP
2080
2080
4100
4100
4100
6300
5D00
8000
8000
8000
ENDCHAR
STARTCHAR paragraph
ENCODING 182
SWIDTH 585 0
DWIDTH 9 0
BBX 6 11 1 0
BITMAP
7C
F4
F4
F4
F4
74
14
14
14
14
14
ENDCHAR
STARTCHAR periodcentered
ENCODING 183
SWIDTH 185 0
DWIDTH 3 0
BBX 1 2 1 5
BITMAP
80
80
ENDCHAR
STARTCHAR cedilla
ENCODING 184
SWIDTH 527 0
DWIDTH 8 0
BBX 4 3 2 -3
BITMAP
20
10
E0
ENDCHAR
STARTCHAR onesuperior
ENCODING 185
SWIDTH 261 0
DWIDTH 4 0
BBX 3 7 0 4
BITMAP
E0
20
20
20
20
20
20
ENDCHAR
STARTCHAR ordmasculine
ENCODING 186
SWIDTH 520 0
DWIDTH 8 0
BBX 7 8 1 3
BITMAP
38
44
82
82
44
38
00
FE
ENDCHAR
STARTCHAR guillemotright
ENCODING 187
SWIDTH 440 0
DWIDTH 7 0
BBX 6 5 0 3
BITMAP
90
48
24
48
90
ENDCHAR
STARTCHAR onequarter
ENCODING 188
SWIDTH 857 0
DWIDTH 14 0
BBX 13 11 0 0
BITMAP
E020
2040
2080
2100
2200
2660
04A0
0920
1220
23F8
4020
ENDCHAR
STARTCHAR onehalf
ENCODING 189
SWIDTH 937 0
DWIDTH 15 0
BBX 13 11 0 0
BITMAP
E020
2040
2080
2100
2200
26F0
0408
0808
1010
2060
40F8
ENDCHAR
STARTCHAR threequarters
ENCODING 190
SWIDTH 978 0
DWIDTH 16 0
BBX 14 11 1 0
BITMAP
F010
0820
3040
0880
0900
F330
0250
0490
0910
11FC
2010
ENDCHAR
STARTCHAR questiondown
ENCODING 191
SWIDTH 568 0
DWIDTH 9 0
BBX 7 11 1 0
BITMAP
08
08
00
00
08
18
60
80
80
42
3C
ENDCHAR
STARTCHAR Agrave
ENCODING 192
SWIDTH 812 0
DWIDTH 13 0
BBX 11 14 1 0
BITMAP
1800
0600
0000
0400
0A00
0A00
1100
1100
2080
2080
7FC0
4040
8020
8020
ENDCHAR
STARTCHAR Aacute
ENCODING 193
SWIDTH 812 0
DWIDTH 13 0
BBX 11 14 1 0
BITMAP
0100
0E00
0000
0400
0A00
0A00
1100
1100
2080
2080
7FC0
4040
8020
8020
ENDCHAR
STARTCHAR Acircumflex
ENCODING 194
SWIDTH 812 0
DWIDTH 13 0
BBX 11 14 1 0
BITMAP
0C00
3300
0000
0400
0A00
0A00
1100
1100
2080
2080
7FC0
4040
8020
8020
ENDCHAR
STARTCHAR Atilde
ENCODING 195
SWIDTH 812 0
DWIDTH 13 0
BBX 11 14 1 0
BITMAP
0C80
1380
0000
0400
0A00
0A00
1100
1100
2080
2080
7FC0
4040
8020
8020
ENDCHAR
STARTCHAR Adieresis
ENCODING 196
SWIDTH 812 0
DWIDTH 13 0
BBX 11 13 1 0
BITMAP
0900
0000
0400
0A00
0A00
1100
1100
2080
2080
7FC0
4040
8020
8020
ENDCHAR
STARTCHAR Aring
ENCODING 197
SWIDTH 812 0
DWIDTH 13 0
BBX 11 15 1 0
BITMAP
0600
0900
0600
0000
0400
0A00
0A00
1100
1100
2080
2080
7FC0
4040
8020
8020
ENDCHAR
STARTCHAR AE
ENCODING 198
SWIDTH 1172 0
DWIDTH 19 0
BBX 17 11 1 0
BITMAP
01FF80
028000
048000
048000
088000
10FF00
108000
3F8000
408000
408000
80FF80
ENDCHAR
STARTCHAR Ccedilla
ENCODING 199
SWIDTH 869 0
DWIDTH 14 0
BBX 12 14 1 -3
BITMAP
0FE0
3010
4000
8000
8000
8000
8000
8000
4000
3010
0FE0
0200
0100
0E00
ENDCHAR
STARTCHAR Egrave
ENCODING 200
SWIDTH 754 0
DWIDTH 12 0
BBX 9 14 2 0
BITMAP
6000
1800
0000
FF80
8000
8000
8000
8000
FF00
8000
8000
8000
8000
FF80
ENDCHAR
STARTCHAR Eacute
ENCODING 201
SWIDTH 754 0
DWIDTH 12 0
BBX 9 14 2 0
BITMAP
0600
1800
0000
FF80
8000
8000
8000
8000
FF00
8000
8000
8000
8000
FF80
ENDCHAR
STARTCHAR Ecircumflex
ENCODING 202
SWIDTH 754 0
DWIDTH 12 0
BBX 9 14 2 0
BITMAP
1800
6600
0000
FF80
8000
8000
8000
8000
FF00
8000
8000
8000
8000
FF80
ENDCHAR
STARTCHAR Edieresis
ENCODING 203
SWIDTH 754 0
DWIDTH 12 0
BBX 9 13 2 0
BITMAP
2400
0000
FF80
8000
8000
8000
8000
FF00
8000
8000
8000
8000
FF80
ENDCHAR
STARTCHAR Igrave
ENCODING 204
SWIDTH 287 0
DWIDTH 5 0
BBX 4 14 0 0
BITMAP
C0
30
00
20
20
20
20
20
20
20
20
20
20
20
ENDCHAR
STARTCHAR Iacute
ENCODING 205
SWIDTH 287 0
DWIDTH 5 0
BBX 4 14 1 0
BITMAP
30
C0
00
40
40
40
40
40
40
40
40
40
40
40
ENDCHAR
STARTCHAR Icircumflex
ENCODING 206
SWIDTH 287 0
DWIDTH 5 0
BBX 6 14 -1 0
BITMAP
30
CC
00
10
10
10
10
10
10
10
10
10
10
10
ENDCHAR
STARTCHAR Idieresis
ENCODING 207
SWIDTH 287 0
DWIDTH 5 0
BBX 4 13 1 0
BITMAP
90
00
40
40
40
40
40
40
40
40
40
40
40
ENDCHAR
STARTCHAR Eth
ENCODING 208
SWIDTH 910 0
DWIDTH 15 0
BBX 14 11 0 0
BITMAP
3FE0
2010
2008
2004
2004
FE04
2004
2004
2008
2010
3FE0
ENDCHAR
STARTCHAR Ntilde
ENCODING 209
SWIDTH 936 0
DWIDTH 15 0
BBX 11 14 2 0
BITMAP
1900
2600
0000
8020
C020
A020
9020
8820
8420
8220
8120
80A0
8060
8020
ENDCHAR
STARTCHAR Ograve
ENCODING 210
SWIDTH 983 0
DWIDTH 16 0
BBX 14 14 1 0
BITMAP
0800
0700
0000
0FC0
3030
4008
8004
8004
8004
8004
8004
4008
3030
0FC0
ENDCHAR
STARTCHAR Oacute
ENCODING 211
SWIDTH 983 0
DWIDTH 16 0
BBX 14 14 1 0
BITMAP
00C0
0300
0000
0FC0
3030
4008
8004
8004
8004
8004
8004
4008
3030
0FC0
ENDCHAR
STARTCHAR Ocircumflex
ENCODING 212
SWIDTH 983 0
DWIDTH 16 0
BBX 14 14 1 0
BITMAP
0300
0CC0
0000
0FC0
3030
4008
8004
8004
8004
8004
8004
4008
3030
0FC0
ENDCHAR
STARTCHAR Otilde
ENCODING 213
SWIDTH 983 0
DWIDTH 16 0
BBX 14 14 1 0
BITMAP
0E40
0980
0000
0FC0
3030
4008
8004
8004
8004
8004
8004
4008
3030
0FC0
ENDCHAR
STARTCHAR Odieresis
ENCODING 214
SWIDTH 983 0
DWIDTH 16 0
BBX 14 13 1 0
BITMAP
0480
0000
0FC0
3030
4008
8004
8004
8004
8004
8004
4008
3030
0FC0
ENDCHAR
STARTCHAR multiply
ENCODING 215
SWIDTH 634 0
DWIDTH 10 0
BBX 7 7 2 2
BITMAP
82
44
28
10
28
44
82
ENDCHAR
STARTCHAR Oslash
ENCODING 216
SWIDTH 983 0
DWIDTH 16 0
BBX 14 13 1 -1
BITMAP
0018
0FE0
3030
4048
8084
8104
8104
8204
8404
4808
3030
1FC0
6000
ENDCHAR
STARTCHAR Ugrave
ENCODING 217
SWIDTH 891 0
DWIDTH 14 0
BBX 11 14 2 0
BITMAP
3000
0C00
0000
8020
8020
8020
8020
8020
8020
8020
8020
8020
4040
3F80
ENDCHAR
STARTCHAR Uacute
ENCODING 218
SWIDTH 891 0
DWIDTH 14 0
BBX 11 14 2 0
BITMAP
0300
0C00
0000
8020
8020
8020
8020
8020
8020
8020
8020
8020
4040
3F80
ENDCHAR
STARTCHAR Ucircumflex
ENCODING 219
SWIDTH 891 0
DWIDTH 14 0
BBX 11 14 2 0
BITMAP
0C00
3300
0000
8020
8020
8020
8020
8020
8020
8020
8020
8020
4040
3F80
ENDCHAR
STARTCHAR Udieresis
ENCODING 220
SWIDTH 891 0
DWIDTH 14 0
BBX 11 13 2 0
BITMAP
1200
0000
8020
8020
8020
8020
8020
8020
8020
8020
8020
4040
3F80
ENDCHAR
STARTCHAR Yacute
ENCODING 221
SWIDTH 763 0
DWIDTH 12 0
BBX 9 14 2 0
BITMAP
0600
1800
0000
8080
4100
4100
2200
1400
1400
0800
0800
0800
0800
0800
ENDCHAR
STARTCHAR Thorn
ENCODING 222
SWIDTH 787 0
DWIDTH 13 0
BBX 10 11 2 0
BITMAP
8000
8000
FF00
8080
8040
8040
8040
8080
FF00
8000
8000
ENDCHAR
STARTCHAR germandbls
ENCODING 223
SWIDTH 863 0
DWIDTH 14 0
BBX 11 11 2 0
BITMAP
3F80
6040
8040
80C0
9F00
80C0
8020
8020
8020
A040
9F80
ENDCHAR
STARTCHAR agrave
ENCODING 224
SWIDTH 888 0
DWIDTH 14 0
BBX 12 14 1 0
BITMAP
1000
0E00
0000
1FC0
6020
0010
0010
03F0
3C10
4010
8010
8010
4070
3F90
ENDCHAR
STARTCHAR aacute
ENCODING 225
SWIDTH 888 0
DWIDTH 14 0
BBX 12 14 1 0
BITMAP
0180
0600
0000
1FC0
6020
0010
0010
03F0
3C10
4010
8010
8010
4070
3F90
ENDCHAR
STARTCHAR acircumflex
ENCODING 226
SWIDTH 888 0
DWIDTH 14 0
BBX 12 14 1 0
BITMAP
0600
1980
0000
1FC0
6020
0010
0010
03F0
3C10
4010
8010
8010
4070
3F90
ENDCHAR
STARTCHAR atilde
ENCODING 227
SWIDTH 888 0
DWIDTH 14 0
BBX 12 14 1 0
BITMAP
0C80
1300
0000
1FC0
6020
0010
0010
03F0
3C10
4010
8010
8010
4070
3F90
ENDCHAR
STARTCHAR adieresis
ENCODING 228
SWIDTH 888 0
DWIDTH 14 0
BBX 12 13 1 0
BITMAP
0900
0000
1FC0
6020
0010
0010
03F0
3C10
4010
8010
8010
4070
3F90
ENDCHAR
STARTCHAR aring
ENCODING 229
SWIDTH 888 0
DWIDTH 14 0
BBX 12 15 1 0
BITMAP
0600
0900
0600
0000
1FC0
6020
0010
0010
03F0
3C10
4010
8010
8010
4070
3F90
ENDCHAR
STARTCHAR ae
ENCODING 230
SWIDTH 1551 0
DWIDTH 25 0
BBX 23 11 1 0
BITMAP
1FC3F0
602408
001804
001002
03F002
3C1FFE
401000
801000
801800
406404
3F83F8
ENDCHAR
STARTCHAR ccedilla
ENCODING 231
SWIDTH 869 0
DWIDTH 14 0
BBX 12 14 1 -3
BITMAP
0FE0
3010
4000
8000
8000
8000
8000
8000
4000
3010
0FE0
0200
0100
0E00
ENDCHAR
STARTCHAR egrave
ENCODING 232
SWIDTH 910 0
DWIDTH 15 0
BBX 12 14 1 0
BITMAP
1800
0600
0000
1F80
2040
4020
8010
8010
FFF0
8000
8000
4000
3020
1FC0
ENDCHAR
STARTCHAR eacute
ENCODING 233
SWIDTH 910 0
DWIDTH 15 0
BBX 12 14 1 0
BITMAP
0180
0600
0000
1F80
2040
4020
8010
8010
FFF0
8000
8000
4000
3020
1FC0
ENDCHAR
STARTCHAR ecircumflex
ENCODING 234
SWIDTH 910 0
DWIDTH 15 0
BBX 12 14 1 0
BITMAP
0600
1980
0000
1F80
2040
4020
8010
8010
FFF0
8000
8000
4000
3020
1FC0
ENDCHAR
STARTCHAR edieresis
ENCODING 235
SWIDTH 910 0
DWIDTH 15 0
BBX 12 13 1 0
BITMAP
0900
0000
1F80
2040
4020
8010
8010
FFF0
8000
8000
4000
3020
1FC0
ENDCHAR
STARTCHAR igrave
ENCODING 236
SWIDTH 287 0
DWIDTH 5 0
BBX 4 14 0 0
BITMAP
C0
30
00
20
20
20
20
20
20
20
20
20
20
20
ENDCHAR
STARTCHAR iacute
ENCODING 237
SWIDTH 287 0
DWIDTH 5 0
BBX 4 14 1 0
BITMAP
30
C0
00
40
40
40
40
40
40
40
40
40
40
40
ENDCHAR
STARTCHAR icircumflex
ENCODING 238
SWIDTH 287 0
DWIDTH 5 0
BBX 6 14 -1 0
BITMAP
30
CC
00
10
10
10
10
10
10
10
10
10
10
10
ENDCHAR
STARTCHAR idieresis
ENCODING 239
SWIDTH 287 0
DWIDTH 5 0
BBX 4 13 1 0
BITMAP
90
00
40
40
40
40
40
40
40
40
40
40
40
ENDCHAR
STARTCHAR eth
ENCODING 240
SWIDTH 910 0
DWIDTH 15 0
BBX 14 11 0 0
BITMAP
3FE0
2010
2008
2004
2004
FE04
2004
2004
2008
2010
3FE0
ENDCHAR
STARTCHAR ntilde
ENCODING 241
SWIDTH 933 0
DWIDTH 15 0
BBX 11 14 2 0
BITMAP
1900
2600
0000
8F80
B040
C020
8020
8020
8020
8020
8020
8020
8020
8020
ENDCHAR
STARTCHAR ograve
ENCODING 242
SWIDTH 983 0
DWIDTH 16 0
BBX 14 14 1 0
BITMAP
0800
0700
0000
0FC0
3030
4008
8004
8004
8004
8004
8004
4008
3030
0FC0
ENDCHAR
STARTCHAR oacute
ENCODING 243
SWIDTH 983 0
DWIDTH 16 0
BBX 14 14 1 0
BITMAP
00C0
0300
0000
0FC0
3030
4008
8004
8004
8004
8004
8004
4008
3030
0FC0
ENDCHAR
STARTCHAR ocircumflex
ENCODING 244
SWIDTH 983 0
DWIDTH 16 0
BBX 14 14 1 0
BITMAP
0300
0CC0
0000
0FC0
3030
4008
8004
8004
8004
8004
8004
4008
3030
0FC0
ENDCHAR
STARTCHAR otilde
ENCODING 245
SWIDTH 983 0
DWIDTH 16 0
BBX 14 14 1 0
BITMAP
0E40
0980
0000
0FC0
3030
4008
8004
8004
8004
8004
8004
4008
3030
0FC0
ENDCHAR
STARTCHAR odieresis
ENCODING 246
SWIDTH 983 0
DWIDTH 16 0
BBX 14 13 1 0
BITMAP
0480
0000
0FC0
3030
4008
8004
8004
8004
8004
8004
4008
3030
0FC0
ENDCHAR
STARTCHAR divide
ENCODING 247
SWIDTH 634 0
DWIDTH 10 0
BBX 7 7 2 2
BITMAP
10
00
00
FE
00
00
10
ENDCHAR
STARTCHAR oslash
ENCODING 248
SWIDTH 983 0
DWIDTH 16 0
BBX 14 13 1 -1
BITMAP
0018
0FE0
3030
4048
8084
8104
8104
8204
8404
4808
3030
1FC0
6000
ENDCHAR
STARTCHAR ugrave
ENCODING 249
SWIDTH 931 0
DWIDTH 15 0
BBX 11 14 2 0
BITMAP
1800
0600
0000
8020
8020
8020
8020
8020
8020
8020
8020
8060
41A0
3E20
ENDCHAR
STARTCHAR uacute
ENCODING 250
SWIDTH 931 0
DWIDTH 15 0
BBX 11 14 2 0
BITMAP
0100
0E00
0000
8020
8020
8020
8020
8020
8020
8020
8020
8060
41A0
3E20
ENDCHAR
STARTCHAR ucircumflex
ENCODING 251
SWIDTH 931 0
DWIDTH 15 0
BBX 11 14 2 0
BITMAP
0C00
3300
0000
8020
8020
8020
8020
8020
8020
8020
8020
8060
41A0
3E20
ENDCHAR
STARTCHAR udieresis
ENCODING 252
SWIDTH 931 0
DWIDTH 15 0
BBX 11 13 2 0
BITMAP
1200
0000
8020
8020
8020
8020
8020
8020
8020
8020
8060
41A0
3E20
ENDCHAR
STARTCHAR yacute
ENCODING 253
SWIDTH 911 0
DWIDTH 15 0
BBX 11 14 2 0
BITMAP
0300
0C00
0000
8020
8020
8020
8020
8060
41A0
3E20
0020
0020
80C0
7F00
ENDCHAR
STARTCHAR thorn
ENCODING 254
SWIDTH 787 0
DWIDTH 13 0
BBX 10 11 2 0
BITMAP
8000
8000
FF00
8080
8040
8040
8040
8080
FF00
8000
8000
ENDCHAR
STARTCHAR ydieresis
ENCODING 255
SWIDTH 911 0
DWIDTH 15 0
BBX 11 13 2 0
BITMAP
1200
0000
8020
8020
8020
8020
8060
41A0
3E20
0020
0020
80C0
7F00
ENDCHAR
STARTCHAR Amacron
ENCODING 256
SWIDTH 812 0
DWIDTH 13 0
BBX 11 13 1 0
BITMAP
1E00
0000
0400
0A00
0A00
1100
1100
2080
2080
7FC0
4040
8020
8020
ENDCHAR
STARTCHAR amacron
ENCODING 257
SWIDTH 888 0
DWIDTH 14 0
BBX 12 13 1 0
BITMAP
0F00
0000
1FC0
6020
0010
0010
03F0
3C10
4010
8010
8010
4070
3F90
ENDCHAR
STARTCHAR Abreve
ENCODING 258
SWIDTH 812 0
DWIDTH 13 0
BBX 11 14 1 0
BITMAP
1900
0E00
0000
0400
0A00
0A00
1100
1100
2080
2080
7FC0
4040
8020
8020
ENDCHAR
STARTCHAR abreve
ENCODING 259
SWIDTH 888 0
DWIDTH 14 0
BBX 12 14 1 0
BITMAP
0880
0700
0000
1FC0
6020
0010
0010
03F0
3C10
4010
8010
8010
4070
3F90
ENDCHAR
STARTCHAR Aogonek
ENCODING 260
SWIDTH 812 0
DWIDTH 13 0
BBX 12 14 1 -3
BITMAP
0400
0A00
0A00
1100
1100
2080
2080
7FC0
4040
8020
8020
0020
0040
0030
ENDCHAR
STARTCHAR aogonek
ENCODING 261
SWIDTH 888 0
DWIDTH 14 0
BBX 13 14 1 -3
BITMAP
1FC0
6020
0010
0010
03F0
3C10
4010
8010
8010
4070
3F90
0020
0020
0018
ENDCHAR
STARTCHAR Cacute
ENCODING 262
SWIDTH 869 0
DWIDTH 14 0
BBX 12 14 1 0
BITMAP
0080
0340
0000
0FE0
3010
4000
8000
8000
8000
8000
8000
4000
3010
0FE0
ENDCHAR
STARTCHAR cacute
ENCODING 263
SWIDTH 869 0
DWIDTH 14 0
BBX 12 14 1 0
BITMAP
0080
0340
0000
0FE0
3010
4000
8000
8000
8000
8000
8000
4000
3010
0FE0
ENDCHAR
STARTCHAR Ccircumflex
ENCODING 264
SWIDTH 869 0
DWIDTH 14 0
BBX 12 14 1 0
BITMAP
0300
0CC0
0000
0FE0
3010
4000
8000
8000
8000
8000
8000
4000
3010
0FE0
ENDCHAR
STARTCHAR ccircumflex
ENCODING 265
SWIDTH 869 0
DWIDTH 14 0
BBX 12 14 1 0
BITMAP
0300
0CC0
0000
0FE0
3010
4000
8000
8000
8000
8000
8000
4000
3010
0FE0
ENDCHAR
STARTCHAR Cdotaccent
ENCODING 266
SWIDTH 869 0
DWIDTH 14 0
BBX 12 13 1 0
BITMAP
0100
0000
0FE0
3010
4000
8000
8000
8000
8000
8000
4000
3010
0FE0
ENDCHAR
STARTCHAR cdotaccent
ENCODING 267
SWIDTH 869 0
DWIDTH 14 0
BBX 12 13 1 0
BITMAP
0100
0000
0FE0
3010
4000
8000
8000
8000
8000
8000
4000
3010
0FE0
ENDCHAR
STARTCHAR Ccaron
ENCODING 268
SWIDTH 869 0
DWIDTH 14 0
BBX 12 14 1 0
BITMAP
08C0
0700
0000
0FE0
3010
4000
8000
8000
8000
8000
8000
4000
3010
0FE0
ENDCHAR
STARTCHAR ccaron
ENCODING 269
SWIDTH 869 0
DWIDTH 14 0
BBX 12 14 1 0
BITMAP
08C0
0700
0000
0FE0
3010
4000
8000
8000
8000
8000
8000
4000
3010
0FE0
ENDCHAR
STARTCHAR Dcaron
ENCODING 270
SWIDTH 910 0
DWIDTH 15 0
BBX 12 14 2 0
BITMAP
6600
1800
0000
FF80
8040
8020
8010
8010
8010
8010
8010
8020
8040
FF80
ENDCHAR
STARTCHAR dcaron
ENCODING 271
SWIDTH 910 0
DWIDTH 15 0
BBX 12 14 2 0
BITMAP
6600
1800
0000
FF80
8040
8020
8010
8010
8010
8010
8010
8020
8040
FF80
ENDCHAR
STARTCHAR Dcroat
ENCODING 272
SWIDTH 910 0
DWIDTH 15 0
BBX 14 11 0 0
BITMAP
3FE0
2010
2008
2004
2004
FE04
2004
2004
2008
2010
3FE0
ENDCHAR
STARTCHAR dcroat
ENCODING 273
SWIDTH 910 0
DWIDTH 15 0
BBX 14 11 0 0
BITMAP
3FE0
2010
2008
2004
2004
FE04
2004
2004
2008
2010
3FE0
ENDCHAR
STARTCHAR Emacron
ENCODING 274
SWIDTH 754 0
DWIDTH 12 0
BBX 9 13 2 0
BITMAP
3C00
0000
FF80
8000
8000
8000
8000
FF00
8000
8000
8000
8000
FF80
ENDCHAR
STARTCHAR emacron
ENCODING 275
SWIDTH 910 0
DWIDTH 15 0
BBX 12 13 1 0
BITMAP
0F00
0000
1F80
2040
4020
8010
8010
FFF0
8000
8000
4000
3020
1FC0
ENDCHAR
STARTCHAR Ebreve
ENCODING 276
SWIDTH 754 0
DWIDTH 12 0
BBX 9 14 2 0
BITMAP
2200
1C00
0000
FF80
8000
8000
8000
8000
FF00
8000
8000
8000
8000
FF80
ENDCHAR
STARTCHAR ebreve
ENCODING 277
SWIDTH 910 0
DWIDTH 15 0
BBX 12 14 1 0
BITMAP
1100
0E00
0000
1F80
2040
4020
8010
8010
FFF0
8000
8000
4000
3020
1FC0
ENDCHAR
STARTCHAR Edotaccent
ENCODING 278
SWIDTH 754 0
DWIDTH 12 0
BBX 9 13 2 0
BITMAP
0800
0000
FF80
8000
8000
8000
8000
FF00
8000
8000
8000
8000
FF80
ENDCHAR
STARTCHAR edotaccent
ENCODING 279
SWIDTH 910 0
DWIDTH 15 0
BBX 12 13 1 0
BITMAP
0200
0000
1F80
2040
4020
8010
8010
FFF0
8000
8000
4000
3020
1FC0
ENDCHAR
STARTCHAR Eogonek
ENCODING 280
SWIDTH 754 0
DWIDTH 12 0
BBX 9 14 2 -3
BITMAP
FF80
8000
8000
8000
8000
FF00
8000
8000
8000
8000
FF80
0200
0200
0380
ENDCHAR
STARTCHAR eogonek
ENCODING 281
SWIDTH 910 0
DWIDTH 15 0
BBX 12 14 1 -3
BITMAP
1F80
2040
4020
8010
8010
FFF0
8000
8000
4000
3020
0FC0
0080
0080
00E0
ENDCHAR
STARTCHAR Ecaron
ENCODING 282
SWIDTH 754 0
DWIDTH 12 0
BBX 9 14 2 0
BITMAP
6600
1800
0000
FF80
8000
8000
8000
8000
FF00
8000
8000
8000
8000
FF80
ENDCHAR
STARTCHAR ecaron
ENCODING 283
SWIDTH 910 0
DWIDTH 15 0
BBX 12 14 1 0
BITMAP
1980
0600
0000
1F80
2040
4020
8010
8010
FFF0
8000
8000
4000
3020
1FC0
ENDCHAR
STARTCHAR Gcircumflex
ENCODING 284
SWIDTH 910 0
DWIDTH 15 0
BBX 12 14 1 0
BITMAP
0300
0CC0
0000
0FE0
3010
4000
8000
8000
8000
81F0
8010
4010
3010
0FE0
ENDCHAR
STARTCHAR gcircumflex
ENCODING 285
SWIDTH 910 0
DWIDTH 15 0
BBX 12 14 1 0
BITMAP
0300
0CC0
0000
0FE0
3010
4000
8000
8000
8000
81F0
8010
4010
3010
0FE0
ENDCHAR
STARTCHAR Gbreve
ENCODING 286
SWIDTH 910 0
DWIDTH 15 0
BBX 12 14 1 0
BITMAP
04C0
0380
0000
0FE0
3010
4000
8000
8000
8000
81F0
8010
4010
3010
0FE0
ENDCHAR
STARTCHAR gbreve
ENCODING 287
SWIDTH 910 0
DWIDTH 15 0
BBX 12 14 1 0
BITMAP
04C0
0380
0000
0FE0
3010
4000
8000
8000
8000
81F0
8010
4010
3010
0FE0
ENDCHAR
STARTCHAR Gdotaccent
ENCODING 288
SWIDTH 910 0
DWIDTH 15 0
BBX 12 13 1 0
BITMAP
0100
0000
0FE0
3010
4000
8000
8000
8000
81F0
8010
4010
3010
0FE0
ENDCHAR
STARTCHAR gdotaccent
ENCODING 289
SWIDTH 910 0
DWIDTH 15 0
BBX 12 13 1 0
BITMAP
0100
0000
0FE0
3010
4000
8000
8000
8000
81F0
8010
4010
3010
0FE0
ENDCHAR
STARTCHAR Gcommaaccent
ENCODING 290
SWIDTH 910 0
DWIDTH 15 0
BBX 12 14 1 -3
BITMAP
0FE0
3010
4000
8000
8000
8000
81F0
8010
4010
3010
0FE0
0000
0200
0200
ENDCHAR
STARTCHAR gcommaaccent
ENCODING 291
SWIDTH 910 0
DWIDTH 15 0
BBX 12 14 1 -3
BITMAP
0FE0
3010
4000
8000
8000
8000
81F0
8010
4010
3010
0FE0
0000
0200
0200
ENDCHAR
STARTCHAR Hcircumflex
ENCODING 292
SWIDTH 949 0
DWIDTH 15 0
BBX 12 14 2 0
BITMAP
0600
1980
0000
8010
8010
8010
8010
8010
FFF0
8010
8010
8010
8010
8010
ENDCHAR
STARTCHAR hcircumflex
ENCODING 293
SWIDTH 949 0
DWIDTH 15 0
BBX 12 14 2 0
BITMAP
0600
1980
0000
8010
8010
8010
8010
8010
FFF0
8010
8010
8010
8010
8010
ENDCHAR
STARTCHAR Hbar
ENCODING 294
SWIDTH 949 0
DWIDTH 15 0
BBX 14 11 1 0
BITMAP
4008
4008
FFFC
4008
4008
7FF8
4008
4008
4008
4008
4008
ENDCHAR
STARTCHAR hbar
ENCODING 295
SWIDTH 949 0
DWIDTH 15 0
BBX 14 11 1 0
BITMAP
4008
4008
FFFC
4008
4008
7FF8
4008
4008
4008
4008
4008
ENDCHAR
STARTCHAR Itilde
ENCODING 296
SWIDTH 287 0
DWIDTH 5 0
BBX 6 14 -1 0
BITMAP
64
98
00
10
10
10
10
10
10
10
10
10
10
10
ENDCHAR
STARTCHAR itilde
ENCODING 297
SWIDTH 287 0
DWIDTH 5 0
BBX 6 14 -1 0
BITMAP
64
98
00
10
10
10
10
10
10
10
10
10
10
10
ENDCHAR
STARTCHAR Imacron
ENCODING 298
SWIDTH 287 0
DWIDTH 5 0
BBX 4 13 0 0
BITMAP
F0
00
20
20
20
20
20
20
20
20
20
20
20
ENDCHAR
STARTCHAR imacron
ENCODING 299
SWIDTH 287 0
DWIDTH 5 0
BBX 4 13 0 0
BITMAP
F0
00
20
20
20
20
20
20
20
20
20
20
20
ENDCHAR
STARTCHAR Ibreve
ENCODING 300
SWIDTH 287 0
DWIDTH 5 0
BBX 5 14 0 0
BITMAP
88
70
00
20
20
20
20
20
20
20
20
20
20
20
ENDCHAR
STARTCHAR ibreve
ENCODING 301
SWIDTH 287 0
DWIDTH 5 0
BBX 5 14 0 0
BITMAP
88
70
00
20
20
20
20
20
20
20
20
20
20
20
ENDCHAR
STARTCHAR Iogonek
ENCODING 302
SWIDTH 287 0
DWIDTH 5 0
BBX 3 14 1 -3
BITMAP
40
40
40
40
40
40
40
40
40
40
40
80
80
60
ENDCHAR
STARTCHAR iogonek
ENCODING 303
SWIDTH 287 0
DWIDTH 5 0
BBX 3 14 1 -3
BITMAP
40
40
40
40
40
40
40
40
40
40
40
80
80
60
ENDCHAR
STARTCHAR Idotaccent
ENCODING 304
SWIDTH 287 0
DWIDTH 5 0
BBX 1 13 2 0
BITMAP
80
00
80
80
80
80
80
80
80
80
80
80
80
ENDCHAR
STARTCHAR dotlessi
ENCODING 305
SWIDTH 287 0
DWIDTH 5 0
BBX 1 11 2 0
BITMAP
80
80
80
80
80
80
80
80
80
80
80
ENDCHAR
STARTCHAR IJ
ENCODING 306
SWIDTH 877 0
DWIDTH 14 0
BBX 11 11 2 0
BITMAP
8020
8020
8020
8020
8020
8020
8020
8020
8040
90C0
8F80
ENDCHAR
STARTCHAR ij
ENCODING 307
SWIDTH 877 0
DWIDTH 14 0
BBX 11 11 2 0
BITMAP
8020
8020
8020
8020
8020
8020
8020
8020
8040
90C0
8F80
ENDCHAR
STARTCHAR Jcircumflex
ENCODING 308
SWIDTH 590 0
DWIDTH 9 0
BBX 10 14 0 0
BITMAP
0300
0CC0
0000
0100
0100
0100
0100
0100
0100
0100
0100
0100
8200
7C00
ENDCHAR
STARTCHAR jcircumflex
ENCODING 309
SWIDTH 590 0
DWIDTH 9 0
BBX 10 14 0 0
BITMAP
0300
0CC0
0000
0100
0100
0100
0100
0100
0100
0100
0100
0100
8200
7C00
ENDCHAR
STARTCHAR Kcommaaccent
ENCODING 310
SWIDTH 806 0
DWIDTH 13 0
BBX 11 14 2 -3
BITMAP
80E0
8100
8600
8800
B000
E000
9000
8C00
8200
8180
8060
0000
1000
1000
ENDCHAR
STARTCHAR kcommaaccent
ENCODING 311
SWIDTH 867 0
DWIDTH 14 0
BBX 11 14 2 -3
BITMAP
8040
8040
8080
8100
8200
FC00
8300
8080
8040
8020
8020
0000
0800
1000
ENDCHAR
STARTCHAR kgreenlandic
ENCODING 312
SWIDTH 867 0
DWIDTH 14 0
BBX 11 11 2 0
BITMAP
8040
8040
8080
8100
8200
FC00
8300
8080
8040
8020
8020
ENDCHAR
STARTCHAR Lacute
ENCODING 313
SWIDTH 701 0
DWIDTH 11 0
BBX 10 14 1 0
BITMAP
3000
C000
0000
4000
4000
4000
4000
4000
4000
4000
4000
4000
4000
7FC0
ENDCHAR
STARTCHAR lacute
ENCODING 314
SWIDTH 709 0
DWIDTH 11 0
BBX 10 14 1 0
BITMAP
3000
C000
0000
4000
4000
4000
4000
4000
4000
4000
4000
4000
2000
1FC0
ENDCHAR
STARTCHAR Lcommaaccent
ENCODING 315
SWIDTH 701 0
DWIDTH 11 0
BBX 9 14 2 -3
BITMAP
8000
8000
8000
8000
8000
8000
8000
8000
8000
8000
FF80
0000
1000
1000
ENDCHAR
STARTCHAR lcommaaccent
ENCODING 316
SWIDTH 709 0
DWIDTH 11 0
BBX 9 14 2 -3
BITMAP
8000
8000
8000
8000
8000
8000
8000
8000
8000
4000
3F80
0000
1000
1000
ENDCHAR
STARTCHAR Lcaron
ENCODING 317
SWIDTH 701 0
DWIDTH 11 0
BBX 9 11 2 0
BITMAP
8400
8400
8400
8800
8000
8000
8000
8000
8000
8000
FF80
ENDCHAR
STARTCHAR lcaron
ENCODING 318
SWIDTH 709 0
DWIDTH 11 0
BBX 9 11 2 0
BITMAP
8400
8400
8400
8800
8000
8000
8000
8000
8000
4000
3F80
ENDCHAR
STARTCHAR Ldot
ENCODING 319
SWIDTH 701 0
DWIDTH 11 0
BBX 9 11 2 0
BITMAP
8000
8000
8000
8000
8400
8400
8000
8000
8000
8000
FF80
ENDCHAR
STARTCHAR ldotaccent
ENCODING 320
SWIDTH 709 0
DWIDTH 11 0
BBX 9 11 2 0
BITMAP
8000
8000
8000
8000
8200
8200
8000
8000
8000
4000
3F80
ENDCHAR
STARTCHAR Lslash
ENCODING 321
SWIDTH 701 0
DWIDTH 11 0
BBX 11 11 0 0
BITMAP
2000
2000
2000
2000
2400
3800
E000
2000
2000
2000
3FE0
ENDCHAR
STARTCHAR lslash
ENCODING 322
SWIDTH 709 0
DWIDTH 11 0
BBX 11 11 0 0
BITMAP
2000
2000
2000
2000
2400
3800
E000
2000
2000
2000
1FE0
ENDCHAR
STARTCHAR Nacute
ENCODING 323
SWIDTH 936 0
DWIDTH 15 0
BBX 11 14 2 0
BITMAP
0100
0E00
0000
8020
C020
A020
9020
8820
8420
8220
8120
80A0
8060
8020
ENDCHAR
STARTCHAR nacute
ENCODING 324
SWIDTH 933 0
DWIDTH 15 0
BBX 11 14 2 0
BITMAP
0300
0C00
0000
8F80
B040
C020
8020
8020
8020
8020
8020
8020
8020
8020
ENDCHAR
STARTCHAR Ncommaaccent
ENCODING 325
SWIDTH 936 0
DWIDTH 15 0
BBX 11 14 2 -3
BITMAP
8020
C020
A020
9020
8820
8420
8220
8120
80A0
8060
8020
0000
0400
0400
ENDCHAR
STARTCHAR ncommaaccent
ENCODING 326
SWIDTH 933 0
DWIDTH 15 0
BBX 11 14 2 -3
BITMAP
8F80
B040
C020
8020
8020
8020
8020
8020
8020
8020
8020
0000
0400
0400
ENDCHAR
STARTCHAR Ncaron
ENCODING 327
SWIDTH 936 0
DWIDTH 15 0
BBX 11 14 2 0
BITMAP
3100
0E00
0000
8020
C020
A020
9020
8820
8420
8220
8120
80A0
8060
8020
ENDCHAR
STARTCHAR ncaron
ENCODING 328
SWIDTH 933 0
DWIDTH 15 0
BBX 11 14 2 0
BITMAP
3300
0C00
0000
8F80
B040
C020
8020
8020
8020
8020
8020
8020
8020
8020
ENDCHAR
STARTCHAR napostrophe
ENCODING 329
SWIDTH 1025 0
DWIDTH 16 0
BBX 14 11 0 0
BITMAP
D0F8
930C
9C04
1004
1004
1004
1004
1004
1004
1004
1004
ENDCHAR
STARTCHAR Eng
ENCODING 330
SWIDTH 936 0
DWIDTH 15 0
BBX 11 11 2 0
BITMAP
C020
A020
9020
8820
8620
8120
80A0
8060
8020
8840
8780
ENDCHAR
STARTCHAR eng
ENCODING 331
SWIDTH 933 0
DWIDTH 15 0
BBX 11 11 2 0
BITMAP
8F80
B040
C020
8020
8020
8020
8020
8020
8020
8840
8780
ENDCHAR
STARTCHAR Omacron
ENCODING 332
SWIDTH 983 0
DWIDTH 16 0
BBX 14 13 1 0
BITMAP
0780
0000
0FC0
3030
4008
8004
8004
8004
8004
8004
4008
3030
0FC0
ENDCHAR
STARTCHAR omacron
ENCODING 333
SWIDTH 983 0
DWIDTH 16 0
BBX 14 13 1 0
BITMAP
0780
0000
0FC0
3030
4008
8004
8004
8004
8004
8004
4008
3030
0FC0
ENDCHAR
STARTCHAR Obreve
ENCODING 334
SWIDTH 983 0
DWIDTH 16 0
BBX 14 14 1 0
BITMAP
04C0
0380
0000
0FC0
3030
4008
8004
8004
8004
8004
8004
4008
3030
0FC0
ENDCHAR
STARTCHAR obreve
ENCODING 335
SWIDTH 983 0
DWIDTH 16 0
BBX 14 14 1 0
BITMAP
04C0
0380
0000
0FC0
3030
4008
8004
8004
8004
8004
8004
4008
3030
0FC0
ENDCHAR
STARTCHAR Ohungarumlaut
ENCODING 336
SWIDTH 983 0
DWIDTH 16 0
BBX 14 14 1 0
BITMAP
0120
06C0
0000
0FC0
3030
4008
8004
8004
8004
8004
8004
4008
3030
0FC0
ENDCHAR
STARTCHAR ohungarumlaut
ENCODING 337
SWIDTH 983 0
DWIDTH 16 0
BBX 14 14 1 0
BITMAP
0120
06C0
0000
0FC0
3030
4008
8004
8004
8004
8004
8004
4008
3030
0FC0
ENDCHAR
STARTCHAR OE
ENCODING 338
SWIDTH 1338 0
DWIDTH 21 0
BBX 19 11 1 0
BITMAP
0FFFE0
302000
402000
802000
802000
803FC0
802000
802000
402000
302000
0FFFE0
ENDCHAR
STARTCHAR oe
ENCODING 339
SWIDTH 1688 0
DWIDTH 27 0
BBX 25 11 1 0
BITMAP
0FC0FC00
30310200
400A0100
80040080
80040080
8007FF80
80040000
80040000
400A0000
30318100
0FC0FE00
ENDCHAR
STARTCHAR Racute
ENCODING 340
SWIDTH 833 0
DWIDTH 13 0
BBX 11 14 2 0
BITMAP
0600
1800
0000
FF00
8080
8040
8040
8080
FF00
8100
8080
8080
8040
8020
ENDCHAR
STARTCHAR racute
ENCODING 341
SWIDTH 609 0
DWIDTH 10 0
BBX 8 14 2 0
BITMAP
0C
30
00
8F
B0
C0
80
80
80
80
80
80
80
80
ENDCHAR
STARTCHAR Rcommaaccent
ENCODING 342
SWIDTH 833 0
DWIDTH 13 0
BBX 11 14 2 -3
BITMAP
FF00
8080
8040
8040
8080
FF00
8100
8080
8080
8040
8020
0000
0800
0800
ENDCHAR
STARTCHAR rcommaaccent
ENCODING 343
SWIDTH 609 0
DWIDTH 10 0
BBX 8 14 2 -3
BITMAP
8F
B0
C0
80
80
80
80
80
80
80
80
00
80
80
ENDCHAR
STARTCHAR Rcaron
ENCODING 344
SWIDTH 833 0
DWIDTH 13 0
BBX 11 14 2 0
BITMAP
6600
1800
0000
FF00
8080
8040
8040
8080
FF00
8100
8080
8080
8040
8020
ENDCHAR
STARTCHAR rcaron
ENCODING 345
SWIDTH 609 0
DWIDTH 10 0
BBX 8 14 2 0
BITMAP
CC
30
00
8F
B0
C0
80
80
80
80
80
80
80
80
ENDCHAR
STARTCHAR Sacute
ENCODING 346
SWIDTH 787 0
DWIDTH 13 0
BBX 10 14 1 0
BITMAP
0300
0C00
0000
3F00
4080
8000
8000
6000
1E00
0180
0040
0040
8080
7F00
ENDCHAR
STARTCHAR sacute
ENCODING 347
SWIDTH 787 0
DWIDTH 13 0
BBX 10 14 1 0
BITMAP
0300
0C00
0000
3F00
4080
8000
8000
6000
1E00
0180
0040
0040
8080
7F00
ENDCHAR
STARTCHAR Scircumflex
ENCODING 348
SWIDTH 787 0
DWIDTH 13 0
BBX 10 14 1 0
BITMAP
0C00
3300
0000
3F00
4080
8000
8000
6000
1E00
0180
0040
0040
8080
7F00
ENDCHAR
STARTCHAR scircumflex
ENCODING 349
SWIDTH 787 0
DWIDTH 13 0
BBX 10 14 1 0
BITMAP
0C00
3300
0000
3F00
4080
8000
8000
6000
1E00
0180
0040
0040
8080
7F00
ENDCHAR
STARTCHAR Scedilla
ENCODING 350
SWIDTH 787 0
DWIDTH 13 0
BBX 10 14 1 -3
BITMAP
3F00
4080
8000
8000
6000
1E00
0180
0040
0040
8080
7F00
0400
0200
1C00
ENDCHAR
STARTCHAR scedilla
ENCODING 351
SWIDTH 787 0
DWIDTH 13 0
BBX 10 14 1 -3
BITMAP
3F00
4080
8000
8000
6000
1E00
0180
0040
0040
8080
7F00
0400
0200
1C00
ENDCHAR
STARTCHAR Scaron
ENCODING 352
SWIDTH 787 0
DWIDTH 13 0
BBX 10 14 1 0
BITMAP
3300
0C00
0000
3F00
4080
8000
8000
6000
1E00
0180
0040
0040
8080
7F00
ENDCHAR
STARTCHAR scaron
ENCODING 353
SWIDTH 787 0
DWIDTH 13 0
BBX 10 14 1 0
BITMAP
3300
0C00
0000
3F00
4080
8000
8000
6000
1E00
0180
0040
0040
8080
7F00
ENDCHAR
STARTCHAR Tcommaaccent
ENCODING 354
SWIDTH 708 0
DWIDTH 11 0
BBX 11 14 0 -3
BITMAP
FFE0
0400
0400
0400
0400
0400
0400
0400
0400
0400
0400
0000
0400
0400
ENDCHAR
STARTCHAR tcommaaccent
ENCODING 355
SWIDTH 708 0
DWIDTH 11 0
BBX 11 14 0 -3
BITMAP
FFE0
0400
0400
0400
0400
0400
0400
0400
0400
0400
0400
0000
0400
0400
ENDCHAR
STARTCHAR Tcaron
ENCODING 356
SWIDTH 708 0
DWIDTH 11 0
BBX 11 14 0 0
BITMAP
3100
0E00
0000
FFE0
0400
0400
0400
0400
0400
0400
0400
0400
0400
0400
ENDCHAR
STARTCHAR tcaron
ENCODING 357
SWIDTH 708 0
DWIDTH 11 0
BBX 11 14 0 0
BITMAP
3100
0E00
0000
FFE0
0400
0400
0400
0400
0400
0400
0400
0400
0400
0400
ENDCHAR
STARTCHAR Tbar
ENCODING 358
SWIDTH 708 0
DWIDTH 11 0
BBX 11 11 0 0
BITMAP
FFE0
0400
0400
0400
7FC0
0400
0400
0400
0400
0400
0400
ENDCHAR
STARTCHAR tbar
ENCODING 359
SWIDTH 708 0
DWIDTH 11 0
BBX 11 11 0 0
BITMAP
FFE0
0400
0400
0400
7FC0
0400
0400
0400
0400
0400
0400
ENDCHAR
STARTCHAR Utilde
ENCODING 360
SWIDTH 891 0
DWIDTH 14 0
BBX 11 14 2 0
BITMAP
1900
2600
0000
8020
8020
8020
8020
8020
8020
8020
8020
8020
4040
3F80
ENDCHAR
STARTCHAR utilde
ENCODING 361
SWIDTH 931 0
DWIDTH 15 0
BBX 11 14 2 0
BITMAP
1900
2600
0000
8020
8020
8020
8020
8020
8020
8020
8020
8060
41A0
3E20
ENDCHAR
STARTCHAR Umacron
ENCODING 362
SWIDTH 891 0
DWIDTH 14 0
BBX 11 13 2 0
BITMAP
1E00
0000
8020
8020
8020
8020
8020
8020
8020
8020
8020
4040
3F80
ENDCHAR
STARTCHAR umacron
ENCODING 363
SWIDTH 931 0
DWIDTH 15 0
BBX 11 13 2 0
BITMAP
1E00
0000
8020
8020
8020
8020
8020
8020
8020
8020
8060
41A0
3E20
ENDCHAR
STARTCHAR Ubreve
ENCODING 364
SWIDTH 891 0
DWIDTH 14 0
BBX 11 14 2 0
BITMAP
1100
0E00
0000
8020
8020
8020
8020
8020
8020
8020
8020
8020
4040
3F80
ENDCHAR
STARTCHAR ubreve
ENCODING 365
SWIDTH 931 0
DWIDTH 15 0
BBX 11 14 2 0
BITMAP
1100
0E00
0000
8020
8020
8020
8020
8020
8020
8020
8020
8060
41A0
3E20
ENDCHAR
STARTCHAR Uring
ENCODING 366
SWIDTH 891 0
DWIDTH 14 0
BBX 11 15 2 0
BITMAP
0C00
1200
0C00
0000
8020
8020
8020
8020
8020
8020
8020
8020
8020
4040
3F80
ENDCHAR
STARTCHAR uring
ENCODING 367
SWIDTH 931 0
DWIDTH 15 0
BBX 11 15 2 0
BITMAP
0C00
1200
0C00
0000
8020
8020
8020
8020
8020
8020
8020
8020
8060
41A0
3E20
ENDCHAR
STARTCHAR Uhungarumlaut
ENCODING 368
SWIDTH 891 0
DWIDTH 14 0
BBX 11 14 2 0
BITMAP
0480
1B00
0000
8020
8020
8020
8020
8020
8020
8020
8020
8020
4040
3F80
ENDCHAR
STARTCHAR uhungarumlaut
ENCODING 369
SWIDTH 931 0
DWIDTH 15 0
BBX 11 14 2 0
BITMAP
0480
1B00
0000
8020
8020
8020
8020
8020
8020
8020
8020
8060
41A0
3E20
ENDCHAR
STARTCHAR Uogonek
ENCODING 370
SWIDTH 891 0
DWIDTH 14 0
BBX 11 14 2 -3
BITMAP
8020
8020
8020
8020
8020
8020
8020
8020
8020
4040
3F80
0800
0800
0600
ENDCHAR
STARTCHAR uogonek
ENCODING 371
SWIDTH 931 0
DWIDTH 15 0
BBX 12 14 2 -3
BITMAP
8020
8020
8020
8020
8020
8020
8020
8020
8060
41A0
3E20
0040
0040
0030
ENDCHAR
STARTCHAR Wcircumflex
ENCODING 372
SWIDTH 1266 0
DWIDTH 20 0
BBX 17 14 2 0
BITMAP
018000
066000
000000
808080
814080
414100
414100
422100
222200
222200
241200
141400
141400
080800
ENDCHAR
STARTCHAR wcircumflex
ENCODING 373
SWIDTH 1266 0
DWIDTH 20 0
BBX 17 14 2 0
BITMAP
018000
066000
000000
808080
814080
414100
414100
422100
222200
222200
241200
141400
141400
080800
ENDCHAR
STARTCHAR Ycircumflex
ENCODING 374
SWIDTH 763 0
DWIDTH 12 0
BBX 9 14 2 0
BITMAP
1800
6600
0000
8080
4100
4100
2200
1400
1400
0800
0800
0800
0800
0800
ENDCHAR
STARTCHAR ycircumflex
ENCODING 375
SWIDTH 911 0
DWIDTH 15 0
BBX 11 14 2 0
BITMAP
0600
1980
0000
8020
8020
8020
8020
8060
41A0
3E20
0020
0020
80C0
7F00
ENDCHAR
STARTCHAR Ydieresis
ENCODING 376
SWIDTH 763 0
DWIDTH 12 0
BBX 9 13 2 0
BITMAP
1200
0000
8080
4100
4100
2200
1400
1400
0800
0800
0800
0800
0800
ENDCHAR
STARTCHAR Zacute
ENCODING 377
SWIDTH 728 0
DWIDTH 12 0
BBX 9 14 1 0
BITMAP
0300
0C00
0000
FF80
0100
0200
0200
0400
0800
1000
2000
4000
4000
FF80
ENDCHAR
STARTCHAR zacute
ENCODING 378
SWIDTH 728 0
DWIDTH 12 0
BBX 9 14 1 0
BITMAP
0300
0C00
0000
FF80
0100
0200
0200
0400
0800
1000
2000
4000
4000
FF80
ENDCHAR
STARTCHAR Zdotaccent
ENCODING 379
SWIDTH 728 0
DWIDTH 12 0
BBX 9 13 1 0
BITMAP
0800
0000
FF80
0100
0200
0200
0400
0800
1000
2000
4000
4000
FF80
ENDCHAR
STARTCHAR zdotaccent
ENCODING 380
SWIDTH 728 0
DWIDTH 12 0
BBX 9 13 1 0
BITMAP
0800
0000
FF80
0100
0200
0200
0400
0800
1000
2000
4000
4000
FF80
ENDCHAR
STARTCHAR Zcaron
ENCODING 381
SWIDTH 728 0
DWIDTH 12 0
BBX 9 14 1 0
BITMAP
2300
1C00
0000
FF80
0100
0200
0200
0400
0800
1000
2000
4000
4000
FF80
ENDCHAR
STARTCHAR zcaron
ENCODING 382
SWIDTH 728 0
DWIDTH 12 0
BBX 9 14 1 0
BITMAP
2300
1C00
0000
FF80
0100
0200
0200
0400
0800
1000
2000
4000
4000
FF80
ENDCHAR
STARTCHAR florin
ENCODING 402
SWIDTH 835 0
DWIDTH 13 0
BBX 12 12 1 -1
BITMAP
00F0
0100
0100
0200
0FC0
0200
0400
0400
0400
0400
8800
7000
ENDCHAR
STARTCHAR AEacute
ENCODING 508
SWIDTH 1172 0
DWIDTH 19 0
BBX 17 14 1 0
BITMAP
000800
003400
000000
01FF80
028000
048000
048000
088000
10FF00
108000
3F8000
408000
408000
80FF80
ENDCHAR
STARTCHAR aeacute
ENCODING 509
SWIDTH 1551 0
DWIDTH 25 0
BBX 23 14 1 0
BITMAP
000400
003800
000000
1FC3F0
602408
001804
001002
03F002
3C1FFE
401000
801000
801800
406404
3F83F8
ENDCHAR
STARTCHAR Oslashacute
ENCODING 510
SWIDTH 983 0
DWIDTH 16 0
BBX 14 15 1 -1
BITMAP
00C0
0300
0018
0FE0
3030
4048
8084
8104
8104
8204
8404
4808
3030
1FC0
6000
ENDCHAR
STARTCHAR oslashacute
ENCODING 511
SWIDTH 983 0
DWIDTH 16 0
BBX 14 15 1 -1
BITMAP
00C0
0300
0018
0FE0
3030
4048
8084
8104
8104
8204
8404
4808
3030
1FC0
6000
ENDCHAR
STARTCHAR dotlessj
ENCODING 567
SWIDTH 590 0
DWIDTH 9 0
BBX 8 11 0 0
BITMAP
01
01
01
01
01
01
01
01
01
82
7C
ENDCHAR
STARTCHAR circumflex
ENCODING 710
SWIDTH 527 0
DWIDTH 8 0
BBX 6 2 1 9
BITMAP
30
CC
ENDCHAR
STARTCHAR caron
ENCODING 711
SWIDTH 527 0
DWIDTH 8 0
BBX 6 2 1 9
BITMAP
CC
30
ENDCHAR
STARTCHAR breve
ENCODING 728
SWIDTH 527 0
DWIDTH 8 0
BBX 5 2 2 9
BITMAP
88
70
ENDCHAR
STARTCHAR dotaccent
ENCODING 729
SWIDTH 527 0
DWIDTH 8 0
BBX 1 1 4 9
BITMAP
80
ENDCHAR
STARTCHAR ring
ENCODING 730
SWIDTH 527 0
DWIDTH 8 0
BBX 4 3 2 9
BITMAP
60
90
60
ENDCHAR
STARTCHAR ogonek
ENCODING 731
SWIDTH 527 0
DWIDTH 8 0
BBX 3 3 2 -3
BITMAP
40
80
60
ENDCHAR
STARTCHAR tilde
ENCODING 732
SWIDTH 527 0
DWIDTH 8 0
BBX 6 2 1 9
BITMAP
64
98
ENDCHAR
STARTCHAR hungarumlaut
ENCODING 733
SWIDTH 527 0
DWIDTH 8 0
BBX 6 2 2 9
BITMAP
24
D8
ENDCHAR
STARTCHAR commaaccent
ENCODING 806
SWIDTH 527 0
DWIDTH 8 0
BBX 1 2 3 -3
BITMAP
80
80
ENDCHAR
STARTCHAR mu
ENCODING 956
SWIDTH 705 0
DWIDTH 11 0
BBX 9 10 1 -3
BITMAP
2080
2080
4100
4100
4100
6300
5D00
8000
8000
8000
ENDCHAR
STARTCHAR Wgrave
ENCODING 7808
SWIDTH 1266 0
DWIDTH 20 0
BBX 17 14 2 0
BITMAP
060000
018000
000000
808080
814080
414100
414100
422100
222200
222200
241200
141400
141400
080800
ENDCHAR
STARTCHAR wgrave
ENCODING 7809
SWIDTH 1266 0
DWIDTH 20 0
BBX 17 14 2 0
BITMAP
060000
018000
000000
808080
814080
414100
414100
422100
222200
222200
241200
141400
141400
080800
ENDCHAR
STARTCHAR Wacute
ENCODING 7810
SWIDTH 1266 0
DWIDTH 20 0
BBX 17 14 2 0
BITMAP
006000
018000
000000
808080
814080
414100
414100
422100
222200
222200
241200
141400
141400
080800
ENDCHAR
STARTCHAR wacute
ENCODING 7811
SWIDTH 1266 0
DWIDTH 20 0
BBX 17 14 2 0
BITMAP
006000
018000
000000
808080
814080
414100
414100
422100
222200
222200
241200
141400
141400
080800
ENDCHAR
STARTCHAR Wdieresis
ENCODING 7812
SWIDTH 1266 0
DWIDTH 20 0
BBX 17 13 2 0
BITMAP
024000
000000
808080
814080
414100
414100
422100
222200
222200
241200
141400
141400
080800
ENDCHAR
STARTCHAR wdieresis
ENCODING 7813
SWIDTH 1266 0
DWIDTH 20 0
BBX 17 13 2 0
BITMAP
024000
000000
808080
814080
414100
414100
422100
222200
222200
241200
141400
141400
080800
ENDCHAR
STARTCHAR Ygrave
ENCODING 7922
SWIDTH 763 0
DWIDTH 12 0
BBX 9 14 2 0
BITMAP
6000
1800
0000
8080
4100
4100
2200
1400
1400
0800
0800
0800
0800
0800
ENDCHAR
STARTCHAR ygrave
ENCODING 7923
SWIDTH 911 0
DWIDTH 15 0
BBX 11 14 2 0
BITMAP
3000
0C00
0000
8020
8020
8020
8020
8060
41A0
3E20
0020
0020
80C0
7F00
ENDCHAR
STARTCHAR endash
ENCODING 8211
SWIDTH 419 0
DWIDTH 7 0
BBX 6 1 0 5
BITMAP
FC
ENDCHAR
STARTCHAR emdash
ENCODING 8212
SWIDTH 1000 0
DWIDTH 16 0
BBX 16 1 0 5
BITMAP
FFFF
ENDCHAR
STARTCHAR quoteleft
ENCODING 8216
SWIDTH 163 0
DWIDTH 3 0
BBX 2 3 0 8
BITMAP
40
40
80
ENDCHAR
STARTCHAR quoteright
ENCODING 8217
SWIDTH 163 0
DWIDTH 3 0
BBX 2 3 0 8
BITMAP
40
80
80
ENDCHAR
STARTCHAR quotesinglbase
ENCODING 8218
SWIDTH 163 0
DWIDTH 3 0
BBX 2 3 0 -2
BITMAP
40
80
80
ENDCHAR
STARTCHAR quotedblleft
ENCODING 8220
SWIDTH 303 0
DWIDTH 5 0
BBX 4 3 0 8
BITMAP
50
50
A0
ENDCHAR
STARTCHAR quotedblright
ENCODING 8221
SWIDTH 303 0
DWIDTH 5 0
BBX 4 3 0 8
BITMAP
50
A0
A0
ENDCHAR
STARTCHAR quotedblbase
ENCODING 8222
SWIDTH 303 0
DWIDTH 5 0
BBX 4 3 0 -2
BITMAP
50
A0
A0
ENDCHAR
STARTCHAR dagger
ENCODING 8224
SWIDTH 500 0
DWIDTH 8 0
BBX 5 11 2 0
BITMAP
20
20
20
F8
20
20
20
20
20
20
20
ENDCHAR
STARTCHAR daggerdbl
ENCODING 8225
SWIDTH 500 0
DWIDTH 8 0
BBX 5 11 2 0
BITMAP
20
20
20
F8
20
20
F8
20
20
20
20
ENDCHAR
STARTCHAR bullet
ENCODING 8226
SWIDTH 352 0
DWIDTH 6 0
BBX 3 3 1 4
BITMAP
E0
E0
E0
ENDCHAR
STARTCHAR ellipsis
ENCODING 8230
SWIDTH 555 0
DWIDTH 9 0
BBX 7 2 1 0
BITMAP
92
92
ENDCHAR
STARTCHAR perthousand
ENCODING 8240
SWIDTH 1401 0
DWIDTH 22 0
BBX 20 11 1 0
BITMAP
782000
844000
848000
850000
790000
020000
04F1E0
050A10
090A10
110A10
20F1E0
ENDCHAR
STARTCHAR guilsinglleft
ENCODING 8249
SWIDTH 257 0
DWIDTH 4 0
BBX 3 5 1 3
BITMAP
20
40
80
40
20
ENDCHAR
STARTCHAR guilsinglright
ENCODING 8250
SWIDTH 257 0
DWIDTH 4 0
BBX 3 5 1 3
BITMAP
80
40
20
40
80
ENDCHAR
STARTCHAR fraction
ENCODING 8260
SWIDTH 200 0
DWIDTH 3 0
BBX 10 11 -3 0
BITMAP
0040
0080
0100
0200
0400
0800
0800
1000
2000
4000
8000
ENDCHAR
STARTCHAR Euro
ENCODING 8364
SWIDTH 833 0
DWIDTH 13 0
BBX 12 11 0 0
BITMAP
07E0
0810
1000
2000
FF80
2000
FF80
2000
1000
0810
07E0
ENDCHAR
STARTCHAR trademark
ENCODING 8482
SWIDTH 773 0
DWIDTH 12 0
BBX 11 5 0 6
BITMAP
FC20
2660
26A0
25A0
2520
ENDCHAR
STARTCHAR partialdiff
ENCODING 8706
SWIDTH 790 0
DWIDTH 13 0
BBX 11 11 1 0
BITMAP
0F80
1040
0020
0020
1F20
60E0
8020
8040
8040
4180
3E00
ENDCHAR
STARTCHAR minus
ENCODING 8722
SWIDTH 634 0
DWIDTH 10 0
BBX 7 1 1 5
BITMAP
FE
ENDCHAR
STARTCHAR uni2215
ENCODING 8725
SWIDTH 200 0
DWIDTH 3 0
BBX 10 11 -3 0
BITMAP
0040
0080
0100
0200
0400
0800
0800
1000
2000
4000
8000
ENDCHAR
STARTCHAR approxequal
ENCODING 8776
SWIDTH 634 0
DWIDTH 10 0
BBX 8 5 1 3
BITMAP
71
8E
00
71
8E
ENDCHAR
STARTCHAR notequal
ENCODING 8800
SWIDTH 634 0
DWIDTH 10 0
BBX 7 8 1 1
BITMAP
08
08
FE
10
10
FE
20
20
ENDCHAR
STARTCHAR lessequal
ENCODING 8804
SWIDTH 634 0
DWIDTH 10 0
BBX 8 9 1 1
BITMAP
01
0E
70
80
70
0E
01
00
FF
ENDCHAR
STARTCHAR greaterequal
ENCODING 8805
SWIDTH 634 0
DWIDTH 10 0
BBX 8 9 1 1
BITMAP
80
70
0E
01
0E
70
80
00
FF
ENDCHAR
STARTCHAR fi
ENCODING 64257
SWIDTH 1104 0
DWIDTH 18 0
BBX 14 11 2 0
BITMAP
3FC4
4004
8004
8004
8004
FFC4
8004
8004
8004
8004
8004
ENDCHAR
STARTCHAR fl
ENCODING 64258
SWIDTH 1527 0
DWIDTH 24 0
BBX 22 11 2 0
BITMAP
3FC400
400400
800400
800400
800400
FFC400
800400
800400
800400
800200
8001FC
ENDCHAR
STARTCHAR .notdef
ENCODING -1
SWIDTH 1000 0
DWIDTH 16 0
BBX 1 1 0 0
BITMAP
00
ENDCHAR
ENDFONT
